<svg width="256" height="256" viewBox="16 16 224 224" fill="none" xmlns="http://www.w3.org/2000/svg">
<title>Master Data Editor Icon</title>
<defs>
<linearGradient id="bgGradient" x1="32" y1="20" x2="224" y2="236" gradientUnits="userSpaceOnUse">
<stop stop-color="#F9FFF3"/>
<stop offset="0.52" stop-color="#E5F8D4"/>
<stop offset="1" stop-color="#BFE68A"/>
</linearGradient>
<radialGradient id="bgGlow" cx="0" cy="0" r="1" gradientUnits="userSpaceOnUse" gradientTransform="translate(84 72) rotate(37.3563) scale(166.843)">
<stop stop-color="#FFFFFF" stop-opacity="0.82"/>
<stop offset="1" stop-color="#FFFFFF" stop-opacity="0"/>
</radialGradient>
<linearGradient id="panelGradient" x1="48" y1="48" x2="208" y2="208" gradientUnits="userSpaceOnUse">
<stop stop-color="#FFFFFF" stop-opacity="0.76"/>
<stop offset="1" stop-color="#E4F5D6" stop-opacity="0.6"/>
</linearGradient>
<linearGradient id="commaGradient" x1="104" y1="64" x2="190" y2="232" gradientUnits="userSpaceOnUse">
<stop stop-color="#1D8E53"/>
<stop offset="0.55" stop-color="#43B95D"/>
<stop offset="1" stop-color="#9BE15A"/>
</linearGradient>
</defs>
<rect x="16" y="16" width="224" height="224" rx="56" fill="url(#bgGradient)"/>
<rect x="16" y="16" width="224" height="224" rx="56" fill="url(#bgGlow)"/>
<g opacity="0.92">
<rect x="42" y="42" width="172" height="172" rx="38" fill="url(#panelGradient)" stroke="#D5EFBE" stroke-width="2"/>
<path d="M99 56V200" stroke="#CFE8BD" stroke-width="2"/>
<path d="M156 56V200" stroke="#CFE8BD" stroke-width="2"/>
<path d="M56 98H200" stroke="#CFE8BD" stroke-width="2"/>
<path d="M56 142H200" stroke="#CFE8BD" stroke-width="2"/>
<path d="M56 186H200" stroke="#CFE8BD" stroke-width="2"/>
</g>
<g transform="translate(-21 -24)">
<g transform="matrix(1.32 0 0 1.1 -48.76 -15.2)">
<path d="M130 64H168C183.464 64 196 76.536 196 92V140C196 162 192 183 183 201C171 223 153 237 126 240C137 229 145 217 151 203C157 190 160 174 160 157C160 154 159 152 157 152H130C114.536 152 102 139.464 102 124V92C102 76.536 114.536 64 130 64Z" fill="url(#commaGradient)"/>
<rect x="121" y="79" width="48" height="14" rx="7" fill="#EFFFF1" fill-opacity="0.34"/>
</g>
</g>
<rect x="17" y="17" width="222" height="222" rx="55" stroke="#EFFBDC" stroke-width="2"/>
</svg>
